<?xml version="1.0" standalone="no"?>
<!DOCTYPE svg PUBLIC "-//W3C//DTD SVG 20010904//EN"
 "http://www.w3.org/TR/2001/REC-SVG-20010904/DTD/svg10.dtd">
<svg version="1.0" xmlns="http://www.w3.org/2000/svg"
 width="404.000000pt" height="404.000000pt" viewBox="0 0 404.000000 404.000000"
 preserveAspectRatio="xMidYMid meet">
<metadata>
Created by potrace 1.11, written by Peter Selinger 2001-2013
</metadata>
<g transform="translate(0.000000,404.000000) scale(0.100000,-0.100000)"
fill="#000000" stroke="none">
<path d="M726 4020 c-297 -63 -540 -262 -652 -533 -73 -178 -69 -90 -69 -1472
0 -1144 1 -1245 17 -1307 59 -227 174 -403 350 -533 57 -43 182 -108 241 -127
138 -43 88 -41 1357 -45 862 -3 1227 -1 1284 7 207 30 379 115 520 256 99 100
159 194 207 327 60 163 59 139 58 1431 0 692 -4 1206 -10 1241 -58 366 -309
646 -670 746 l-84 24 -1230 2 c-1169 2 -1234 1 -1319 -17z"/>
</g>
</svg>
